<svg id="visual" viewBox="0 0 900 2400" width="900" height="2400" xmlns="http://www.w3.org/2000/svg" xmlns:xlink="http://www.w3.org/1999/xlink" version="1.1"><rect x="0" y="0" width="900" height="2400" fill="#ffffff"></rect><defs><linearGradient id="grad1_0" x1="0%" y1="100%" x2="100%" y2="0%"><stop offset="30%" stop-color="#fbae3c" stop-opacity="1"></stop><stop offset="70%" stop-color="#fbae3c" stop-opacity="1"></stop></linearGradient></defs><defs><linearGradient id="grad1_1" x1="0%" y1="100%" x2="100%" y2="0%"><stop offset="30%" stop-color="#fbae3c" stop-opacity="1"></stop><stop offset="70%" stop-color="#ffffff" stop-opacity="1"></stop></linearGradient></defs><defs><linearGradient id="grad2_0" x1="0%" y1="100%" x2="100%" y2="0%"><stop offset="30%" stop-color="#fbae3c" stop-opacity="1"></stop><stop offset="70%" stop-color="#fbae3c" stop-opacity="1"></stop></linearGradient></defs><defs><linearGradient id="grad2_1" x1="0%" y1="100%" x2="100%" y2="0%"><stop offset="30%" stop-color="#ffffff" stop-opacity="1"></stop><stop offset="70%" stop-color="#fbae3c" stop-opacity="1"></stop></linearGradient></defs><g transform="translate(900, 2400)"><path d="M-900 0C-864.5 -106.6 -829.1 -213.1 -792.7 -328.3C-756.3 -443.6 -719 -567.5 -636.4 -636.4C-553.8 -705.3 -425.9 -719.1 -312.3 -753.9C-198.7 -788.6 -99.3 -844.3 0 -900L0 0Z" fill="#ffd69f"></path><path d="M-450 0C-432.3 -53.3 -414.5 -106.6 -396.3 -164.2C-378.2 -221.8 -359.5 -283.8 -318.2 -318.2C-276.9 -352.6 -212.9 -359.6 -156.1 -376.9C-99.3 -394.3 -49.7 -422.2 0 -450L0 0Z" fill="#fbae3c"></path></g><g transform="translate(0, 0)"><path d="M900 0C872.6 112.1 845.1 224.2 805.6 333.7C766.1 443.2 714.5 550.1 636.4 636.4C558.3 722.7 453.7 788.2 343.3 828.7C232.8 869.2 116.4 884.6 0 900L0 0Z" fill="#ffd69f"></path><path d="M450 0C436.3 56 422.6 112.1 402.8 166.8C383.1 221.6 357.2 275.1 318.2 318.2C279.2 361.3 226.9 394.1 171.6 414.4C116.4 434.6 58.2 442.3 0 450L0 0Z" fill="#fbae3c"></path></g></svg>