<svg id="visual" viewBox="0 0 450 900" width="450" height="900" xmlns="http://www.w3.org/2000/svg" xmlns:xlink="http://www.w3.org/1999/xlink" version="1.1"><path d="M0 91L18.8 92.5C37.7 94 75.3 97 112.8 98.5C150.3 100 187.7 100 225.2 98.5C262.7 97 300.3 94 337.8 92.5C375.3 91 412.7 91 431.3 91L450 91L450 0L431.3 0C412.7 0 375.3 0 337.8 0C300.3 0 262.7 0 225.2 0C187.7 0 150.3 0 112.8 0C75.3 0 37.7 0 18.8 0L0 0Z" fill="#f4f8fc"></path><path d="M0 154L18.8 155.5C37.7 157 75.3 160 112.8 161.5C150.3 163 187.7 163 225.2 161.5C262.7 160 300.3 157 337.8 155.5C375.3 154 412.7 154 431.3 154L450 154L450 89L431.3 89C412.7 89 375.3 89 337.8 90.5C300.3 92 262.7 95 225.2 96.5C187.7 98 150.3 98 112.8 96.5C75.3 95 37.7 92 18.8 90.5L0 89Z" fill="#f2f7fb"></path><path d="M0 352L18.8 353.5C37.7 355 75.3 358 112.8 361C150.3 364 187.7 367 225.2 364C262.7 361 300.3 352 337.8 350.5C375.3 349 412.7 355 431.3 358L450 361L450 152L431.3 152C412.7 152 375.3 152 337.8 153.5C300.3 155 262.7 158 225.2 159.5C187.7 161 150.3 161 112.8 159.5C75.3 158 37.7 155 18.8 153.5L0 152Z" fill="#f1f6fb"></path><path d="M0 487L18.8 488.5C37.7 490 75.3 493 112.8 494.5C150.3 496 187.7 496 225.2 490C262.7 484 300.3 472 337.8 469C375.3 466 412.7 472 431.3 475L450 478L450 359L431.3 356C412.7 353 375.3 347 337.8 348.5C300.3 350 262.7 359 225.2 362C187.7 365 150.3 362 112.8 359C75.3 356 37.7 353 18.8 351.5L0 350Z" fill="#eff5fa"></path><path d="M0 541L18.8 542.5C37.7 544 75.3 547 112.8 548.5C150.3 550 187.7 550 225.2 544C262.7 538 300.3 526 337.8 523C375.3 520 412.7 526 431.3 529L450 532L450 476L431.3 473C412.7 470 375.3 464 337.8 467C300.3 470 262.7 482 225.2 488C187.7 494 150.3 494 112.8 492.5C75.3 491 37.7 488 18.8 486.5L0 485Z" fill="#eaf3f9"></path><path d="M0 748L18.8 748C37.7 748 75.3 748 112.8 748C150.3 748 187.7 748 225.2 749.5C262.7 751 300.3 754 337.8 754C375.3 754 412.7 751 431.3 749.5L450 748L450 530L431.3 527C412.7 524 375.3 518 337.8 521C300.3 524 262.7 536 225.2 542C187.7 548 150.3 548 112.8 546.5C75.3 545 37.7 542 18.8 540.5L0 539Z" fill="#e3eff7"></path><path d="M0 838L18.8 838C37.7 838 75.3 838 112.8 836.5C150.3 835 187.7 832 225.2 832C262.7 832 300.3 835 337.8 836.5C375.3 838 412.7 838 431.3 838L450 838L450 746L431.3 747.5C412.7 749 375.3 752 337.8 752C300.3 752 262.7 749 225.2 747.5C187.7 746 150.3 746 112.8 746C75.3 746 37.7 746 18.8 746L0 746Z" fill="#dceaf5"></path><path d="M0 901L18.8 901C37.7 901 75.3 901 112.8 901C150.3 901 187.7 901 225.2 901C262.7 901 300.3 901 337.8 901C375.3 901 412.7 901 431.3 901L450 901L450 836L431.3 836C412.7 836 375.3 836 337.8 834.5C300.3 833 262.7 830 225.2 830C187.7 830 150.3 833 112.8 834.5C75.3 836 37.7 836 18.8 836L0 836Z" fill="#d5e6f3"></path></svg>