<svg id="visual" viewBox="0 0 450 900" width="450" height="900" xmlns="http://www.w3.org/2000/svg" xmlns:xlink="http://www.w3.org/1999/xlink" version="1.1"><path d="M0 289L25 298C50 307 100 325 150 334C200 343 250 343 300 341.5C350 340 400 337 425 335.5L450 334L450 0L425 0C400 0 350 0 300 0C250 0 200 0 150 0C100 0 50 0 25 0L0 0Z" fill="#6cb0ef"></path><path d="M0 568L25 584.5C50 601 100 634 150 644.5C200 655 250 643 300 631C350 619 400 607 425 601L450 595L450 332L425 333.5C400 335 350 338 300 339.5C250 341 200 341 150 332C100 323 50 305 25 296L0 287Z" fill="#89c5fa"></path><path d="M0 730L25 742C50 754 100 778 150 790C200 802 250 802 300 794.5C350 787 400 772 425 764.5L450 757L450 593L425 599C400 605 350 617 300 629C250 641 200 653 150 642.5C100 632 50 599 25 582.5L0 566Z" fill="#a2d5ff"></path><path d="M0 901L25 901C50 901 100 901 150 901C200 901 250 901 300 901C350 901 400 901 425 901L450 901L450 755L425 762.5C400 770 350 785 300 792.5C250 800 200 800 150 788C100 776 50 752 25 740L0 728Z" fill="#b8e0fe"></path></svg>